<svg width="225" height="37" viewBox="0 0 225 37" fill="none" xmlns="http://www.w3.org/2000/svg">
<path d="M215.258 36.3171C213.039 36.3171 211.032 35.8446 209.237 34.8997C207.442 33.9221 206.022 32.521 204.978 30.6963C203.966 28.839 203.46 26.5907 203.46 23.9513C203.46 21.312 204.031 19.0637 205.173 17.2064C206.316 15.3491 207.833 13.9317 209.726 12.9541C211.652 11.944 213.757 11.439 216.041 11.439C217.901 11.439 219.484 11.7485 220.79 12.3676C222.095 12.9867 223.091 13.785 223.776 14.7626C224.461 15.7075 224.804 16.7176 224.804 17.7929C224.804 18.7053 224.527 19.4058 223.972 19.8946C223.45 20.3834 222.764 20.6277 221.916 20.6277C221.002 20.6277 220.251 20.3019 219.664 19.6502C219.109 18.9985 218.783 18.1676 218.685 17.1575C218.652 16.5058 218.652 15.9519 218.685 15.4957C218.75 15.0395 218.75 14.5996 218.685 14.176C218.554 13.6221 218.326 13.2474 217.999 13.0519C217.706 12.8564 217.281 12.7586 216.727 12.7586C214.67 12.7586 213.088 13.5895 211.978 15.2513C210.901 16.8805 210.363 19.5362 210.363 23.2182C210.363 26.3789 210.966 28.8064 212.174 30.5008C213.381 32.1952 215.258 33.0424 217.804 33.0424C219.305 33.0424 220.545 32.7654 221.524 32.2115C222.503 31.6249 223.401 30.794 224.217 29.7188L225 30.3053C224.184 32.2603 222.927 33.7592 221.23 34.8019C219.566 35.812 217.575 36.3171 215.258 36.3171Z" fill="white"/>
<path d="M161.72 35.6328V34.7042L162.503 34.5086C163.58 34.1828 164.118 33.3845 164.118 32.1137V17.6952C164.086 17.0109 163.972 16.4895 163.776 16.1311C163.58 15.7401 163.156 15.4794 162.503 15.3491L161.72 15.1536V14.2738L169.65 11.439L170.238 11.9766L170.58 15.0069C171.755 13.9642 173.061 13.1171 174.497 12.4654C175.965 11.7811 177.401 11.439 178.805 11.439C180.959 11.439 182.607 12.0255 183.749 13.1985C184.924 14.3716 185.511 16.1637 185.511 18.5749V32.1626C185.511 33.4334 186.099 34.2317 187.274 34.5575L187.812 34.7042V35.6328H176.553V34.7042L177.287 34.5086C178.364 34.1502 178.903 33.3519 178.903 32.1137V17.5974C178.903 16.4569 178.658 15.626 178.168 15.1047C177.679 14.5834 176.863 14.3227 175.721 14.3227C174.121 14.3227 172.457 15.0232 170.727 16.4244V32.1626C170.727 33.4334 171.298 34.2317 172.441 34.5575L172.93 34.7042V35.6328H161.72Z" fill="white"/>
<path d="M51.8604 35.6326V34.655L52.9373 34.3618C53.4595 34.1989 53.8022 33.9708 53.9654 33.6775C54.1286 33.3517 54.2265 32.9281 54.2591 32.4067V22.7292C54.2591 21.6539 54.2591 20.7415 54.2591 19.9921C54.2591 19.2427 54.2428 18.3629 54.2102 17.3528C54.2102 16.7988 54.1286 16.3752 53.9654 16.082C53.8022 15.7561 53.4432 15.5281 52.8884 15.3977L51.8604 15.1533V14.2736L59.7909 11.4387L60.3784 11.9764L60.7211 15.2511C61.8633 14.2084 63.1361 13.3123 64.5395 12.5629C65.9428 11.8134 67.3788 11.4387 68.8474 11.4387C70.4793 11.4387 71.7521 11.7646 72.6659 12.4163C73.5797 13.0679 74.2814 14.0618 74.7709 15.3977C76.0111 14.1595 77.3818 13.1983 78.883 12.514C80.3843 11.7971 81.8693 11.4387 83.3379 11.4387C85.5571 11.4387 87.2216 11.9927 88.3312 13.1005C89.4408 14.2084 89.9956 15.9516 89.9956 18.3303V32.4556C89.9956 33.4983 90.4526 34.15 91.3664 34.4107L92.2965 34.655V35.6326H81.2818V34.655L82.163 34.4107C83.0442 34.1174 83.4847 33.4494 83.4847 32.4067V18.0859C83.4847 16.6848 83.2237 15.7399 82.7015 15.2511C82.2119 14.7297 81.396 14.4691 80.2538 14.4691C79.3726 14.4691 78.5404 14.6483 77.7571 15.0067C76.9738 15.3651 76.109 15.9191 75.1625 16.6685C75.3584 17.646 75.4563 18.7702 75.4563 20.041V32.4556C75.4889 33.0095 75.5868 33.4494 75.75 33.7753C75.9458 34.0685 76.3048 34.2803 76.827 34.4107L77.6592 34.655V35.6326H66.5956V34.655L67.6236 34.3618C68.1458 34.1989 68.4884 33.9708 68.6516 33.6775C68.8474 33.3517 68.9454 32.9281 68.9454 32.4067V18.1348C68.9454 16.7988 68.7006 15.8539 68.211 15.3C67.7215 14.746 66.8893 14.4691 65.7144 14.4691C64.2131 14.4691 62.5976 15.1859 60.8679 16.6196V32.4556C60.8679 33.5309 61.3248 34.1826 62.2386 34.4107L63.0709 34.655V35.6326H51.8604Z" fill="white"/>
<path d="M121.91 36.4641C118.744 36.4641 115.888 35.8124 113.343 34.509C110.797 33.2056 108.774 31.2832 107.272 28.7416C105.804 26.2 105.069 23.1045 105.069 19.4551C105.069 16.718 105.51 14.2904 106.391 12.1725C107.305 10.0545 108.545 8.27863 110.112 6.84492C111.711 5.37863 113.538 4.28706 115.594 3.5702C117.651 2.82076 119.837 2.44604 122.154 2.44604C123.949 2.44604 125.63 2.65784 127.197 3.08144C128.763 3.47245 130.264 4.05897 131.7 4.84099L131.896 11.2438H130.574L128.518 7.38257C128.192 6.73088 127.833 6.14436 127.441 5.62302C127.082 5.10167 126.609 4.72695 126.022 4.49886C125.206 4.10784 124.243 3.91234 123.133 3.91234C121.208 3.91234 119.446 4.4011 117.846 5.37863C116.28 6.35616 115.023 7.98537 114.077 10.2663C113.13 12.5146 112.657 15.5938 112.657 19.5039C112.657 23.3815 113.098 26.4607 113.979 28.7416C114.893 31.0225 116.117 32.6517 117.651 33.6292C119.184 34.5742 120.914 35.0466 122.84 35.0466C123.721 35.0466 124.439 34.9815 124.994 34.8511C125.548 34.7208 126.103 34.5416 126.658 34.3135C127.311 34.0528 127.817 33.6781 128.176 33.1893C128.535 32.668 128.845 32.0815 129.106 31.4298L130.966 26.982H132.288L132.092 34.0202C130.689 34.8023 129.138 35.4051 127.441 35.8287C125.744 36.2523 123.9 36.4641 121.91 36.4641Z" fill="white"/>
<path d="M10.0846 36.4641C8.28957 36.4641 6.46195 36.236 4.60169 35.7798C2.77407 35.3562 1.24017 34.786 0 34.0691L0.293725 27.2753H1.7134L3.23097 30.6478C3.68788 31.5927 4.1611 32.3747 4.65065 32.9938C5.14019 33.6129 5.79291 34.0854 6.60881 34.4112C7.16363 34.6393 7.6858 34.8023 8.17535 34.9C8.69752 34.9652 9.26866 34.9978 9.88874 34.9978C11.8795 34.9978 13.4461 34.4927 14.5883 33.4826C15.7632 32.4399 16.3507 31.0714 16.3507 29.377C16.3507 27.8455 15.9427 26.6399 15.1268 25.7601C14.3436 24.8803 13.0708 24.0331 11.3084 23.2185L9.30129 22.3388C6.55986 21.1331 4.38956 19.732 2.79039 18.1354C1.22385 16.5388 0.440587 14.4208 0.440587 11.7814C0.440587 9.82639 0.930129 8.16459 1.90921 6.79605C2.92093 5.39492 4.30797 4.31964 6.07032 3.5702C7.83267 2.82076 9.88874 2.44604 12.2385 2.44604C13.9683 2.44604 15.5837 2.67413 17.085 3.13031C18.6189 3.58649 19.957 4.2056 21.0992 4.98762L20.7566 11.0483H19.3369L17.5256 7.38257C17.0034 6.30729 16.4976 5.54155 16.008 5.08537C15.5511 4.59661 14.98 4.28706 14.2946 4.15672C13.903 4.09155 13.5603 4.04268 13.2666 4.01009C13.0055 3.97751 12.6465 3.96122 12.1896 3.96122C10.5904 3.96122 9.20338 4.43369 8.02848 5.37863C6.88622 6.29099 6.31509 7.56178 6.31509 9.191C6.31509 10.755 6.75567 12.0258 7.63685 13.0034C8.51803 13.9809 9.79083 14.8444 11.4553 15.5938L13.6582 16.5225C16.8239 17.891 19.0921 19.3573 20.4628 20.9213C21.8336 22.4528 22.5189 24.4242 22.5189 26.8354C22.5189 29.7028 21.4256 32.0326 19.239 33.8247C17.085 35.5843 14.0335 36.4641 10.0846 36.4641Z" fill="white"/>
<path d="M195.509 8.75129C194.432 8.75129 193.518 8.40916 192.767 7.72489C192.017 7.04062 191.641 6.17714 191.641 5.13444C191.641 4.05916 192.017 3.19567 192.767 2.54398C193.518 1.85971 194.432 1.51758 195.509 1.51758C196.586 1.51758 197.499 1.85971 198.25 2.54398C199.001 3.19567 199.376 4.05916 199.376 5.13444C199.376 6.17714 199.001 7.04062 198.25 7.72489C197.499 8.40916 196.586 8.75129 195.509 8.75129ZM189.879 35.6334V34.7047L190.613 34.5092C191.266 34.3137 191.707 34.0204 191.935 33.6294C192.163 33.2384 192.294 32.7171 192.327 32.0654V23.0721C192.327 22.062 192.327 21.1333 192.327 20.2861C192.327 19.4064 192.31 18.5103 192.278 17.5979C192.278 16.9462 192.147 16.4412 191.886 16.0828C191.658 15.6918 191.217 15.4311 190.564 15.3007L189.879 15.1541V14.2743L198.446 11.4395L199.033 11.9771L198.886 18.9176V32.1142C198.886 32.7659 199.001 33.2873 199.229 33.6783C199.49 34.0693 199.931 34.3626 200.551 34.5581L201.089 34.7047V35.6334H189.879Z" fill="white"/>
<path d="M153.965 8.75129C152.888 8.75129 151.974 8.40916 151.223 7.72489C150.473 7.04062 150.097 6.17714 150.097 5.13444C150.097 4.05916 150.473 3.19567 151.223 2.54398C151.974 1.85971 152.888 1.51758 153.965 1.51758C155.042 1.51758 155.955 1.85971 156.706 2.54398C157.457 3.19567 157.832 4.05916 157.832 5.13444C157.832 6.17714 157.457 7.04062 156.706 7.72489C155.955 8.40916 155.042 8.75129 153.965 8.75129ZM148.335 35.6334V34.7047L149.069 34.5092C149.722 34.3137 150.163 34.0204 150.391 33.6294C150.619 33.2384 150.75 32.7171 150.783 32.0654V23.0721C150.783 22.062 150.783 21.1333 150.783 20.2861C150.783 19.4064 150.766 18.5103 150.734 17.5979C150.734 16.9462 150.603 16.4412 150.342 16.0828C150.114 15.6918 149.673 15.4311 149.02 15.3007L148.335 15.1541V14.2743L156.902 11.4395L157.489 11.9771L157.343 18.9176V32.1142C157.343 32.7659 157.457 33.2873 157.685 33.6783C157.946 34.0693 158.387 34.3626 159.007 34.5581L159.545 34.7047V35.6334H148.335Z" fill="white"/>
<path d="M44.1053 8.75129C43.0283 8.75129 42.1145 8.40916 41.3639 7.72489C40.6133 7.04062 40.2379 6.17714 40.2379 5.13444C40.2379 4.05916 40.6133 3.19567 41.3639 2.54398C42.1145 1.85971 43.0283 1.51758 44.1053 1.51758C45.1823 1.51758 46.0961 1.85971 46.8467 2.54398C47.5974 3.19567 47.9727 4.05916 47.9727 5.13444C47.9727 6.17714 47.5974 7.04062 46.8467 7.72489C46.0961 8.40916 45.1823 8.75129 44.1053 8.75129ZM38.4756 35.6334V34.7047L39.2099 34.5092C39.8626 34.3137 40.3032 34.0204 40.5317 33.6294C40.7601 33.2384 40.8907 32.7171 40.9233 32.0654V23.0721C40.9233 22.062 40.9233 21.1333 40.9233 20.2861C40.9233 19.4064 40.907 18.5103 40.8743 17.5979C40.8743 16.9462 40.7438 16.4412 40.4827 16.0828C40.2543 15.6918 39.8137 15.4311 39.1609 15.3007L38.4756 15.1541V14.2743L47.0426 11.4395L47.63 11.9771L47.4832 18.9176V32.1142C47.4832 32.7659 47.5974 33.2873 47.8258 33.6783C48.0869 34.0693 48.5275 34.3626 49.1476 34.5581L49.6861 34.7047V35.6334H38.4756Z" fill="white"/>
<path d="M41.3633 7.72489C42.1139 8.40916 43.0277 8.75129 44.1047 8.75129C45.1817 8.75129 46.0955 8.40916 46.8461 7.72489C47.5967 7.04062 47.9721 6.17714 47.9721 5.13444C47.9721 4.05916 47.5967 3.19567 46.8461 2.54398C46.0955 1.85971 45.1817 1.51758 44.1047 1.51758C43.0277 1.51758 42.1139 1.85971 41.3633 2.54398C40.6126 3.19567 40.2373 4.05916 40.2373 5.13444C40.2373 6.17714 40.6126 7.04062 41.3633 7.72489Z" fill="white"/>
<path d="M134.664 35.6328V34.7042L135.398 34.5087C136.475 34.1502 137.014 33.3356 137.014 32.0648C137.014 30.957 137.014 29.8491 137.014 28.7412C137.046 27.6008 137.063 26.4766 137.063 25.3688V6.7957C137.063 6.11143 136.949 5.60637 136.72 5.28053C136.492 4.9221 136.051 4.66143 135.398 4.4985L134.664 4.303V3.37435L143.231 1.32153L143.867 1.76142L143.672 8.653V32.0648C143.704 32.7165 143.835 33.2542 144.063 33.6777C144.324 34.0688 144.765 34.3457 145.385 34.5087L146.07 34.7042V35.6328H134.664Z" fill="white"/>
<path d="M24.8037 35.6328V34.7042L25.538 34.5087C26.615 34.1502 27.1535 33.3356 27.1535 32.0648C27.1535 30.957 27.1535 29.8491 27.1535 28.7412C27.1861 27.6008 27.2025 26.4766 27.2025 25.3688V6.7957C27.2025 6.11143 27.0882 5.60637 26.8598 5.28053C26.6313 4.9221 26.1907 4.66143 25.538 4.4985L24.8037 4.303V3.37435L33.3707 1.32153L34.0071 1.76142L33.8113 8.653V32.0648C33.8439 32.7165 33.9745 33.2542 34.2029 33.6777C34.464 34.0688 34.9046 34.3457 35.5247 34.5087L36.21 34.7042V35.6328H24.8037Z" fill="white"/>
</svg>
