<svg width="170" height="28" viewBox="0 0 170 28" fill="none" xmlns="http://www.w3.org/2000/svg">
<path d="M162.64 27.4829C160.963 27.4829 159.446 27.1254 158.09 26.4103C156.734 25.6705 155.661 24.6102 154.872 23.2294C154.108 21.8238 153.726 20.1224 153.726 18.1251C153.726 16.1277 154.157 14.4263 155.02 13.0208C155.883 11.6153 157.03 10.5426 158.46 9.80287C159.915 9.03846 161.505 8.65625 163.231 8.65625C164.637 8.65625 165.833 8.89051 166.819 9.35902C167.806 9.82753 168.558 10.4317 169.075 11.1714C169.593 11.8865 169.852 12.6509 169.852 13.4646C169.852 14.1551 169.643 14.6852 169.223 15.0551C168.829 15.425 168.311 15.6099 167.67 15.6099C166.979 15.6099 166.412 15.3633 165.968 14.8702C165.549 14.377 165.303 13.7482 165.229 12.9838C165.204 12.4906 165.204 12.0714 165.229 11.7262C165.278 11.381 165.278 11.0481 165.229 10.7276C165.13 10.3084 164.957 10.0248 164.711 9.87684C164.489 9.72889 164.168 9.65492 163.749 9.65492C162.196 9.65492 161 10.2837 160.161 11.5413C159.348 12.7742 158.941 14.7839 158.941 17.5703C158.941 19.9621 159.397 21.7992 160.309 23.0814C161.222 24.3636 162.64 25.0048 164.563 25.0048C165.697 25.0048 166.634 24.7952 167.374 24.376C168.114 23.9321 168.792 23.3033 169.408 22.4896L170 22.9335C169.384 24.413 168.434 25.5473 167.152 26.3363C165.895 27.1007 164.39 27.4829 162.64 27.4829Z" fill="#202020"/>
<path d="M122.188 26.9651V26.2623L122.78 26.1144C123.594 25.8678 124.001 25.2637 124.001 24.302V13.3907C123.976 12.8728 123.89 12.4783 123.742 12.2071C123.594 11.9112 123.273 11.7139 122.78 11.6153L122.188 11.4673V10.8015L128.18 8.65625L128.624 9.06311L128.883 11.3563C129.771 10.5673 130.757 9.92616 131.842 9.43299C132.952 8.91516 134.037 8.65625 135.097 8.65625C136.725 8.65625 137.97 9.1001 138.833 9.9878C139.721 10.8755 140.164 12.2317 140.164 14.0564V24.339C140.164 25.3007 140.608 25.9048 141.496 26.1514L141.903 26.2623V26.9651H133.396V26.2623L133.951 26.1144C134.764 25.8432 135.171 25.239 135.171 24.302V13.3167C135.171 12.4536 134.986 11.8249 134.616 11.4303C134.246 11.0358 133.63 10.8385 132.767 10.8385C131.559 10.8385 130.301 11.3687 128.994 12.429V24.339C128.994 25.3007 129.426 25.9048 130.289 26.1514L130.659 26.2623V26.9651H122.188Z" fill="#202020"/>
<path d="M39.1836 26.9651V26.2254L39.9973 26.0034C40.3919 25.8801 40.6508 25.7075 40.7741 25.4856C40.8974 25.239 40.9713 24.9185 40.996 24.5239V17.2004C40.996 16.3867 40.996 15.6962 40.996 15.1291C40.996 14.5619 40.9837 13.8962 40.959 13.1318C40.959 12.7126 40.8974 12.392 40.7741 12.1701C40.6508 11.9235 40.3795 11.7509 39.9603 11.6522L39.1836 11.4673V10.8015L45.1756 8.65625L45.6194 9.06311L45.8783 11.5413C46.7414 10.7522 47.7031 10.0741 48.7634 9.50696C49.8237 8.93982 50.9087 8.65625 52.0183 8.65625C53.2512 8.65625 54.2129 8.90283 54.9033 9.396C55.5938 9.88917 56.1239 10.6413 56.4938 11.6522C57.4308 10.7152 58.4665 9.9878 59.6007 9.46998C60.735 8.92749 61.857 8.65625 62.9666 8.65625C64.6434 8.65625 65.901 9.07544 66.7394 9.91383C67.5777 10.7522 67.9969 12.0714 67.9969 13.8715V24.5609C67.9969 25.35 68.3421 25.8432 69.0326 26.0404L69.7353 26.2254V26.9651H61.4131V26.2254L62.0789 26.0404C62.7447 25.8185 63.0776 25.313 63.0776 24.5239V13.6866C63.0776 12.6263 62.8803 11.9112 62.4858 11.5413C62.1159 11.1467 61.4994 10.9495 60.6364 10.9495C59.9706 10.9495 59.3418 11.0851 58.75 11.3563C58.1582 11.6276 57.5048 12.0468 56.7897 12.6139C56.9376 13.3537 57.0116 14.2044 57.0116 15.1661V24.5609C57.0363 24.9801 57.1102 25.313 57.2335 25.5596C57.3815 25.7815 57.6527 25.9418 58.0473 26.0404L58.6761 26.2254V26.9651H50.3169V26.2254L51.0936 26.0034C51.4881 25.8801 51.747 25.7075 51.8703 25.4856C52.0183 25.239 52.0923 24.9185 52.0923 24.5239V13.7236C52.0923 12.7126 51.9073 11.9975 51.5374 11.5783C51.1676 11.1591 50.5388 10.9495 49.6511 10.9495C48.5168 10.9495 47.2962 11.492 45.9893 12.5769V24.5609C45.9893 25.3746 46.3345 25.8678 47.025 26.0404L47.6538 26.2254V26.9651H39.1836Z" fill="#202020"/>
<path d="M92.1095 27.5944C89.7176 27.5944 87.56 27.1013 85.6366 26.1149C83.7133 25.1286 82.1845 23.6738 81.0502 21.7504C79.9406 19.827 79.3857 17.4845 79.3857 14.7228C79.3857 12.6515 79.7186 10.8144 80.3844 9.2116C81.0748 7.60881 82.0119 6.26493 83.1955 5.17996C84.4037 4.07033 85.7846 3.24427 87.3381 2.70179C88.8916 2.13465 90.5437 1.85107 92.2944 1.85107C93.6506 1.85107 94.9205 2.01135 96.1041 2.33191C97.2877 2.62781 98.422 3.07166 99.507 3.66347L99.6549 8.50884H98.6563L97.1028 5.58682C96.8562 5.09365 96.585 4.6498 96.2891 4.25527C96.0178 3.86073 95.6603 3.57716 95.2164 3.40455C94.6 3.10865 93.8725 2.9607 93.0342 2.9607C91.5793 2.9607 90.2478 3.33058 89.0395 4.07033C87.8559 4.81008 86.9066 6.043 86.1915 7.76909C85.4764 9.47052 85.1188 11.8007 85.1188 14.7597C85.1188 17.6941 85.4517 20.0243 86.1175 21.7504C86.8079 23.4765 87.7326 24.7094 88.8916 25.4492C90.0505 26.1643 91.3574 26.5218 92.8122 26.5218C93.478 26.5218 94.0205 26.4725 94.4397 26.3738C94.8589 26.2752 95.2781 26.1396 95.6973 25.967C96.1904 25.7697 96.5726 25.4861 96.8439 25.1163C97.1151 24.7217 97.3494 24.2779 97.5466 23.7847L98.9522 20.4188H99.9508L99.8029 25.7451C98.7426 26.3369 97.5713 26.793 96.2891 27.1136C95.0068 27.4342 93.6136 27.5944 92.1095 27.5944Z" fill="#202020"/>
<path d="M7.61944 27.5944C6.26323 27.5944 4.88236 27.4218 3.47683 27.0766C2.09596 26.7561 0.937019 26.3245 0 25.782L0.221926 20.6408H1.29457L2.44118 23.1929C2.7864 23.908 3.14395 24.4998 3.51382 24.9683C3.8837 25.4368 4.37686 25.7944 4.99332 26.041C5.41252 26.2136 5.80705 26.3369 6.17693 26.4108C6.57146 26.4602 7.00299 26.4848 7.47149 26.4848C8.97566 26.4848 10.1593 26.1026 11.0223 25.3382C11.91 24.5491 12.3539 23.5135 12.3539 22.2312C12.3539 21.0723 12.0456 20.1599 11.4292 19.4942C10.8374 18.8284 9.87569 18.1873 8.54413 17.5708L7.02764 16.905C4.95634 15.9927 3.31655 14.9324 2.10829 13.7241C0.92469 12.5158 0.332888 10.913 0.332888 8.9157C0.332888 7.4362 0.702764 6.17862 1.44252 5.14297C2.20693 4.08266 3.25491 3.26893 4.58646 2.70179C5.91801 2.13465 7.47149 1.85107 9.2469 1.85107C10.5538 1.85107 11.7744 2.02368 12.9087 2.3689C14.0676 2.71412 15.0786 3.18263 15.9417 3.77443L15.6827 8.36089H14.6101L13.2416 5.58682C12.847 4.7731 12.4648 4.19362 12.0949 3.8484C11.7497 3.47853 11.3182 3.24427 10.8004 3.14564C10.5045 3.09632 10.2456 3.05934 10.0236 3.03468C9.82637 3.01002 9.55513 2.99769 9.20991 2.99769C8.00165 2.99769 6.95367 3.35524 6.06597 4.07033C5.20292 4.76076 4.7714 5.72244 4.7714 6.95536C4.7714 8.13896 5.10429 9.10064 5.77006 9.84039C6.43584 10.5801 7.39752 11.2336 8.6551 11.8007L10.3195 12.5035C12.7114 13.5392 14.4252 14.6488 15.4608 15.8324C16.4965 16.9913 17.0143 18.4832 17.0143 20.3079C17.0143 22.4778 16.1882 24.2409 14.5361 25.5971C12.9087 26.9287 10.6031 27.5944 7.61944 27.5944Z" fill="#202020"/>
<path d="M147.717 6.6226C146.904 6.6226 146.213 6.36369 145.646 5.84586C145.079 5.32804 144.795 4.67459 144.795 3.88552C144.795 3.07179 145.079 2.41834 145.646 1.92518C146.213 1.40735 146.904 1.14844 147.717 1.14844C148.531 1.14844 149.222 1.40735 149.789 1.92518C150.356 2.41834 150.639 3.07179 150.639 3.88552C150.639 4.67459 150.356 5.32804 149.789 5.84586C149.222 6.36369 148.531 6.6226 147.717 6.6226ZM143.464 26.9658V26.263L144.019 26.1151C144.512 25.9671 144.845 25.7452 145.017 25.4493C145.19 25.1534 145.289 24.7589 145.313 24.2657V17.46C145.313 16.6956 145.313 15.9928 145.313 15.3517C145.313 14.6859 145.301 14.0078 145.276 13.3174C145.276 12.8242 145.178 12.442 144.98 12.1707C144.808 11.8748 144.475 11.6776 143.982 11.5789L143.464 11.468V10.8022L149.937 8.65692L150.381 9.06378L150.27 14.316V24.3027C150.27 24.7958 150.356 25.1904 150.528 25.4863C150.726 25.7822 151.059 26.0041 151.527 26.1521L151.934 26.263V26.9658H143.464Z" fill="#202020"/>
<path d="M116.329 6.6226C115.515 6.6226 114.825 6.36369 114.257 5.84586C113.69 5.32804 113.407 4.67459 113.407 3.88552C113.407 3.07179 113.69 2.41834 114.257 1.92518C114.825 1.40735 115.515 1.14844 116.329 1.14844C117.142 1.14844 117.833 1.40735 118.4 1.92518C118.967 2.41834 119.251 3.07179 119.251 3.88552C119.251 4.67459 118.967 5.32804 118.4 5.84586C117.833 6.36369 117.142 6.6226 116.329 6.6226ZM112.075 26.9658V26.263L112.63 26.1151C113.123 25.9671 113.456 25.7452 113.629 25.4493C113.801 25.1534 113.9 24.7589 113.925 24.2657V17.46C113.925 16.6956 113.925 15.9928 113.925 15.3517C113.925 14.6859 113.912 14.0078 113.888 13.3174C113.888 12.8242 113.789 12.442 113.592 12.1707C113.419 11.8748 113.086 11.6776 112.593 11.5789L112.075 11.468V10.8022L118.548 8.65692L118.992 9.06378L118.881 14.316V24.3027C118.881 24.7958 118.967 25.1904 119.14 25.4863C119.337 25.7822 119.67 26.0041 120.138 26.1521L120.545 26.263V26.9658H112.075Z" fill="#202020"/>
<path d="M33.3239 6.6226C32.5102 6.6226 31.8197 6.36369 31.2526 5.84586C30.6854 5.32804 30.4019 4.67459 30.4019 3.88552C30.4019 3.07179 30.6854 2.41834 31.2526 1.92518C31.8197 1.40735 32.5102 1.14844 33.3239 1.14844C34.1376 1.14844 34.828 1.40735 35.3952 1.92518C35.9623 2.41834 36.2459 3.07179 36.2459 3.88552C36.2459 4.67459 35.9623 5.32804 35.3952 5.84586C34.828 6.36369 34.1376 6.6226 33.3239 6.6226ZM29.0703 26.9658V26.263L29.6251 26.1151C30.1183 25.9671 30.4512 25.7452 30.6238 25.4493C30.7964 25.1534 30.895 24.7589 30.9197 24.2657V17.46C30.9197 16.6956 30.9197 15.9928 30.9197 15.3517C30.9197 14.6859 30.9074 14.0078 30.8827 13.3174C30.8827 12.8242 30.7841 12.442 30.5868 12.1707C30.4142 11.8748 30.0813 11.6776 29.5881 11.5789L29.0703 11.468V10.8022L35.5431 8.65692L35.987 9.06378L35.876 14.316V24.3027C35.876 24.7958 35.9623 25.1904 36.1349 25.4863C36.3322 25.7822 36.6651 26.0041 37.1336 26.1521L37.5405 26.263V26.9658H29.0703Z" fill="#202020"/>
<path d="M31.2521 5.84586C31.8192 6.36369 32.5097 6.6226 33.3234 6.6226C34.1371 6.6226 34.8275 6.36369 35.3947 5.84586C35.9618 5.32804 36.2454 4.67459 36.2454 3.88552C36.2454 3.07179 35.9618 2.41834 35.3947 1.92518C34.8275 1.40735 34.1371 1.14844 33.3234 1.14844C32.5097 1.14844 31.8192 1.40735 31.2521 1.92518C30.6849 2.41834 30.4014 3.07179 30.4014 3.88552C30.4014 4.67459 30.6849 5.32804 31.2521 5.84586Z" fill="#A970AF"/>
<path d="M101.746 26.9653V26.2625L102.301 26.1146C103.115 25.8433 103.521 25.2269 103.521 24.2652C103.521 23.4268 103.521 22.5884 103.521 21.75C103.546 20.887 103.558 20.0363 103.558 19.1979V5.14261C103.558 4.62478 103.472 4.24258 103.3 3.99599C103.127 3.72475 102.794 3.52749 102.301 3.40419L101.746 3.25624V2.55348L108.219 1L108.7 1.33289L108.552 6.54814V24.2652C108.576 24.7584 108.675 25.1652 108.848 25.4858C109.045 25.7817 109.378 25.9913 109.846 26.1146L110.364 26.2625V26.9653H101.746Z" fill="#202020"/>
<path d="M18.7402 26.9653V26.2625L19.295 26.1146C20.1088 25.8433 20.5156 25.2269 20.5156 24.2652C20.5156 23.4268 20.5156 22.5884 20.5156 21.75C20.5403 20.887 20.5526 20.0363 20.5526 19.1979V5.14261C20.5526 4.62478 20.4663 4.24258 20.2937 3.99599C20.1211 3.72475 19.7882 3.52749 19.295 3.40419L18.7402 3.25624V2.55348L25.2131 1L25.6939 1.33289L25.546 6.54814V24.2652C25.5706 24.7584 25.6692 25.1652 25.8419 25.4858C26.0391 25.7817 26.372 25.9913 26.8405 26.1146L27.3583 26.2625V26.9653H18.7402Z" fill="#202020"/>
</svg>
