<svg width="16" height="17" viewBox="0 0 16 17" fill="none" xmlns="http://www.w3.org/2000/svg">
<path d="M12.2427 12.7573L8 16.9999L3.75734 12.7573C2.91823 11.9181 2.34679 10.849 2.11529 9.68516C1.88378 8.52128 2.0026 7.31488 2.45673 6.21853C2.91086 5.12218 3.6799 4.18511 4.66659 3.52583C5.65328 2.86654 6.81332 2.51465 8 2.51465C9.18669 2.51465 10.3467 2.86654 11.3334 3.52583C12.3201 4.18511 13.0891 5.12218 13.5433 6.21853C13.9974 7.31488 14.1162 8.52128 13.8847 9.68516C13.6532 10.849 13.0818 11.9181 12.2427 12.7573ZM8 11.1813C8.70725 11.1813 9.38552 10.9003 9.88562 10.4002C10.3857 9.90012 10.6667 9.22184 10.6667 8.5146C10.6667 7.80735 10.3857 7.12907 9.88562 6.62898C9.38552 6.12888 8.70725 5.84793 8 5.84793C7.29276 5.84793 6.61448 6.12888 6.11438 6.62898C5.61429 7.12907 5.33334 7.80735 5.33334 8.5146C5.33334 9.22184 5.61429 9.90012 6.11438 10.4002C6.61448 10.9003 7.29276 11.1813 8 11.1813Z" fill="#F8C82E"/>
</svg>
