<svg width="33" height="32" viewBox="0 0 33 32" fill="none" xmlns="http://www.w3.org/2000/svg">
<path d="M29.6901 9.60336C29.3738 8.45936 28.4457 7.55669 27.2673 7.24869C25.1141 6.67536 16.4997 6.66603 16.4997 6.66603C16.4997 6.66603 7.88672 6.65669 5.7321 7.20469C4.5771 7.51003 3.62285 8.43269 3.30385 9.57536C2.73597 11.6634 2.73047 15.994 2.73047 15.994C2.73047 15.994 2.72497 20.346 3.28872 22.4127C3.60497 23.5554 4.5331 24.458 5.71285 24.766C7.8881 25.3394 16.4791 25.3487 16.4791 25.3487C16.4791 25.3487 25.0935 25.358 27.2467 24.8114C28.4237 24.5047 29.356 23.6034 29.6763 22.4607C30.2456 20.374 30.2497 16.0447 30.2497 16.0447C30.2497 16.0447 30.2772 11.6914 29.6901 9.60336ZM13.7442 20.006L13.7511 12.006L20.9107 16.0127L13.7442 20.006Z" fill="white"/>
</svg>
