<svg width="33" height="32" viewBox="0 0 33 32" fill="none" xmlns="http://www.w3.org/2000/svg">
<path d="M28.8023 11.0733C28.7872 10.0639 28.5947 9.06261 28.2262 8.11861C27.5813 6.50661 26.2682 5.23194 24.6058 4.60794C23.6447 4.25728 22.6286 4.06928 21.6001 4.04794C20.2773 3.99061 19.858 3.97461 16.5002 3.97461C13.1425 3.97461 12.7121 3.97461 11.399 4.04794C10.3718 4.06928 9.35572 4.25728 8.39459 4.60794C6.73222 5.23194 5.41772 6.50661 4.77422 8.11861C4.41259 9.05061 4.21734 10.0359 4.19809 11.0319C4.13897 12.3159 4.12109 12.7226 4.12109 15.9786C4.12109 19.2346 4.12109 19.6506 4.19809 20.9253C4.21872 21.9226 4.41259 22.9066 4.77422 23.8413C5.41909 25.4519 6.73222 26.7266 8.39597 27.3506C9.35297 27.7133 10.3691 27.9186 11.4003 27.9506C12.7245 28.0079 13.1438 28.0253 16.5016 28.0253C19.8593 28.0253 20.2897 28.0253 21.6028 27.9506C22.63 27.9306 23.6461 27.7426 24.6086 27.3919C26.271 26.7666 27.5841 25.4919 28.229 23.8813C28.5906 22.9479 28.7845 21.9639 28.8051 20.9653C28.8642 19.6826 28.8821 19.2759 28.8821 16.0186C28.8793 12.7626 28.8793 12.3493 28.8023 11.0733ZM16.492 22.1359C12.9802 22.1359 10.1353 19.3773 10.1353 15.9719C10.1353 12.5666 12.9802 9.80794 16.492 9.80794C20.001 9.80794 22.8486 12.5666 22.8486 15.9719C22.8486 19.3773 20.001 22.1359 16.492 22.1359ZM23.1016 11.0173C22.2807 11.0173 21.6193 10.3746 21.6193 9.57994C21.6193 8.78528 22.2807 8.14261 23.1016 8.14261C23.9197 8.14261 24.5825 8.78528 24.5825 9.57994C24.5825 10.3746 23.9197 11.0173 23.1016 11.0173Z" fill="white"/>
<path d="M16.4914 19.9768C18.7719 19.9768 20.6206 18.1841 20.6206 15.9728C20.6206 13.7614 18.7719 11.9688 16.4914 11.9688C14.211 11.9688 12.3623 13.7614 12.3623 15.9728C12.3623 18.1841 14.211 19.9768 16.4914 19.9768Z" fill="white"/>
</svg>
