<svg width="16" height="16" viewBox="0 0 16 16" fill="none" xmlns="http://www.w3.org/2000/svg">
<path d="M14 11.3466V13.7039C14.0001 13.8727 13.9361 14.0352 13.8211 14.1587C13.706 14.2822 13.5484 14.3574 13.38 14.3692C13.0887 14.3892 12.8507 14.3999 12.6667 14.3999C6.77533 14.3999 2 9.62457 2 3.73324C2 3.54924 2.01 3.31124 2.03067 3.0199C2.04248 2.85153 2.11772 2.69391 2.2412 2.57884C2.36468 2.46377 2.52722 2.39983 2.696 2.3999H5.05333C5.13603 2.39982 5.2158 2.43048 5.27715 2.48592C5.33851 2.54136 5.37706 2.61762 5.38533 2.6999C5.40067 2.85324 5.41467 2.97524 5.428 3.0679C5.56049 3.99252 5.832 4.89179 6.23333 5.73524C6.29667 5.86857 6.25533 6.0279 6.13533 6.11324L4.69667 7.14124C5.5763 9.19087 7.2097 10.8243 9.25933 11.7039L10.286 10.2679C10.328 10.2092 10.3892 10.1672 10.459 10.149C10.5288 10.1309 10.6028 10.1378 10.668 10.1686C11.5113 10.5691 12.4104 10.84 13.3347 10.9719C13.4273 10.9852 13.5493 10.9999 13.7013 11.0146C13.7835 11.023 13.8596 11.0616 13.9149 11.123C13.9702 11.1843 14.0008 11.264 14.0007 11.3466H14Z" fill="#F8C82E"/>
</svg>
