<svg width="16" height="16" viewBox="0 0 16 16" fill="none" xmlns="http://www.w3.org/2000/svg">
<path fill-rule="evenodd" clip-rule="evenodd" d="M8.285 12.77C7.429 13.337 5.981 14.274 4.528 15.214C4.302 15.404 3.986 15.451 3.67 15.325C3.21 15.141 3.118 14.68 3.302 14.22L4.499 9.708L1.295 6.774C1.121 6.633 1 6.421 1 6.209C1 5.749 1.368 5.472 1.736 5.472H5.909L7.592 1.544C7.746 1.194 8.024 1 8.366 1H8.374C8.712 1.005 8.988 1.196 9.14 1.544L10.824 5.472H14.996C15.364 5.472 15.733 5.749 15.733 6.209C15.733 6.421 15.611 6.633 15.437 6.774L12.234 9.708L13.431 14.22C13.615 14.68 13.523 15.141 13.062 15.325C12.747 15.451 12.431 15.404 12.204 15.214C10.705 14.244 9.21 13.276 8.366 12.716L8.285 12.77Z" fill="#A970AF"/>
</svg>
